<svg id="Layer_1" xmlns="http://www.w3.org/2000/svg" viewBox="0 0 288 216"><style>.st0{fill:#fff}</style><path class="st0" d="M129.8 45.3l5.2-5.2h16.8l5.2 5.2v34.5l-5.2 5.2H135l-5.2-5.2V45.3zm40.2-5.6l-12.8-12.8h-27.7l-12.9 12.9v45.6l12.9 12.9h27.7L170 85.5V39.7z"/><path class="st0" d="M114.9 86.1V38.7l13.9-13.9h29.1l14 13.9-.2 47.5-13.9 13.9h-29l-13.9-14zm13.4-62.6l-14.7 14.7v48.6l14.6 14.8h30.3l14.6-14.7.1-48.6-14.6-14.7h-30.3v-.1z"/><path class="st0" d="M136.5 43.4h13.8l3.3 3.3v31.8l-3.2 3.2h-14l-3.1-3.1V46.7l3.2-3.3zm18.4 2.8l-4.1-4.1H136l-4.1 4.1V79l4 4H151l3.9-3.9V46.2zM33.8 127l-.4-3h-5.5v19.5l2.9.4v1.9H20.3V144l2.9-.4V124h-5.5l-.4 3h-2v-5.6h20.4v5.6h-1.9zm15.1 18.8v-1.7l2.7-.4V137h-7.3v6.7l2.7.4v1.7h-9.9v-1.7l2.8-.4V129l-2.8-.4v-1.7H47v1.7l-2.7.4v5.7h7.3V129l-2.7-.4v-1.7h9.9v1.7l-2.8.4v14.7l2.8.4v1.7h-9.9zm28.5 0H61v-1.7l2.8-.4V129l-2.8-.4v-1.7h16.5v5.1h-1.9l-.4-2.7h-7v5.7h4.4l.4-2.4h1.6v7.1H73l-.4-2.4h-4.4v6.6h7l.4-2.7h1.9v4.6zm23.2.5c-7.6 0-10.9-4.5-10.9-12.7 0-8.1 3.3-12.6 10.9-12.6 7.6 0 10.9 4.5 10.9 12.7s-3.3 12.6-10.9 12.6zm0-22.6c-4 0-6.1 3.2-6.1 9.9s2 10 6 10 6.1-3.2 6.1-9.9c.1-6.7-1.9-10-6-10zm24.6 22.1v-1.7l2.7-.4V137h-7.3v6.7l2.7.4v1.7h-9.9v-1.7l2.8-.4V129l-2.8-.4v-1.7h9.9v1.7l-2.7.4v5.7h7.3V129l-2.7-.4v-1.7h9.9v1.7l-2.8.4v14.7l2.8.4v1.7h-9.9zm12.3 0v-1.7l2.8-.4V129l-2.8-.4v-1.7h10v1.7l-2.8.4v14.7l2.8.4v1.7h-10zm20.8.4c-6.4 0-9.2-3.6-9.2-9.9 0-6.3 2.8-9.9 9.3-9.9 6.4 0 9.2 3.6 9.2 9.9 0 6.4-2.8 9.9-9.3 9.9zm.1-17.3c-3.1 0-4.7 2.2-4.7 7.3 0 5.2 1.6 7.4 4.6 7.4 3.1 0 4.7-2.2 4.7-7.3s-1.6-7.4-4.6-7.4zm29.1 17.4c-4.2 0-7.6-1.5-7.6-1.5v-5.2h2.1l.5 3.3s1.6.5 4.3.5c2.8 0 5.4-.9 5.4-4 0-2.8-2-3.2-4.4-4-3.8-1.3-7.9-2.4-7.9-7.6 0-4.3 2.7-6.8 8.2-6.8 2.5 0 5.2.6 7.3 1.4v4.9h-2.1l-.5-3.1s-2.2-.5-4.3-.5c-2.1 0-4.3.7-4.3 3.5 0 6.1 12.2 2.1 12.2 11.8.1 4.6-2.9 7.3-8.9 7.3zm26.3-14.3l-.4-2.9h-4.2v14.6l2.8.4v1.7h-10v-1.7l2.8-.4v-14.6h-4.2l-.4 2.9h-1.9v-5.3h17.4v5.3h-1.9zm13.5 13.8v-1.7l2.7-.4-1.3-3.5h-7.3l-1.3 3.5 2.7.4v1.7h-8.3v-1.7l2.7-.4 6.5-16.9h4.2l6.5 16.9 2.7.4v1.7h-9.8zm-2.3-15.4l-2.8 7.6h5.5l-2.7-7.6zm26.6 1.6l-.4-2.9H247v14.6l2.8.4v1.7h-10v-1.7l2.8-.4v-14.6h-4.2l-.4 2.9h-2v-5.3h17.4v5.3h-1.8zm20 13.8h-16.5v-1.7l2.8-.4V129l-2.8-.4v-1.7h16.5v5.1h-1.9l-.4-2.7h-7v5.7h4.4l.4-2.4h1.6v7.1h-1.6l-.4-2.4h-4.4v6.6h7l.4-2.7h1.9v4.6zm-204.4 14v12.4c0 4.2-.3 6-2.2 8-1.4 1.4-3.7 2.1-7.2 2.1-3.4 0-6-.9-7.6-2.5-2.1-2.1-1.9-5.2-1.9-7.9v-12.1l-2.9-.4v-1.9h10.5v1.9l-2.9.4V174c0 4 2.2 5.6 5.6 5.6 1.8 0 3.3-.4 4.3-1.4.9-.9 1.3-2.3 1.3-4.2v-14.3l-2.9-.4v-1.9h8.9v1.9l-3 .5zm22.9 5.1v16.9h-3.4L77 168.2v11.5l2.8.4v1.7h-8.5v-1.7l2.8-.4V165l-2.8-.4v-1.7H78l9.3 13v-10.8l-2.8-.4V163H93v1.7l-2.9.2zm5.1 17v-1.7l2.8-.4v-14.7l-2.8-.4V163h10v1.7l-2.8.4v14.7l2.8.4v1.7h-10zm31.4-17l-6.4 16.9H116l-6.4-16.9-2.7-.4v-1.7h9.9v1.7l-2.7.4 4.8 13.1 4.8-13.1-2.7-.4v-1.7h8.3v1.7l-2.7.4zm20.7 17h-16.5v-1.7l2.8-.4v-14.7l-2.8-.4V163h16.5v5.1h-1.9l-.4-2.7h-7v5.7h4.4l.4-2.4h1.6v7.1h-1.6l-.4-2.4H138v6.6h7l.4-2.7h1.9v4.6zm16.7 0l-1.8-4.4c-1.2-2.9-1.9-4.3-4.5-4.3h-.3v6.4l2.7.4v1.7h-9.9V180l2.8-.4v-14.7l-2.8-.4v-1.7h9.6c2 0 4.3.1 5.7 1.5 1 .9 1.5 2.1 1.5 3.6 0 2.2-1.5 4.2-3.5 4.8 1.6 1.2 3 5.1 3.8 7l2.7.4v1.7h-6zm-2-16.2c-.7-.8-2.3-.7-3.3-.7h-1.3v6.1h.8c1.2 0 2.9.1 3.9-.9.6-.7.7-1.4.7-2.3 0-.8-.2-1.6-.8-2.2zm16.8 16.5c-3.6 0-6.5-1.2-6.5-1.2v-4.9h2l.5 3.1s1.4.4 3.5.4c2.3 0 4.1-.8 4.1-2.8 0-1.5-.8-2-2-2.4-3.5-1.2-8-1.7-8-6.5 0-3.4 2.4-5.5 7.1-5.5 2.1 0 4.4.4 6.3 1.1v4.7h-2l-.5-3s-1.6-.4-3.4-.4c-1.8 0-3.3.6-3.3 2.5 0 4.3 10.1 1.4 10.1 9-.1 3.8-2.8 5.9-7.9 5.9zm10.3-.3v-1.7l2.8-.4v-14.7l-2.8-.4V163h10v1.7l-2.8.4v14.7l2.8.4v1.7h-10zm27.7-13.9l-.4-2.9h-4.2v14.6l2.8.4v1.7h-10v-1.7l2.8-.4v-14.6h-4.2l-.4 2.9h-1.9v-5.3h17.4v5.3h-1.9zm21.9-3.1l-5.6 8.6v6.1l2.8.4v1.7h-10V180l2.8-.4v-6.1l-5.6-8.6-2.7-.4v-1.7h10.1v1.7l-2.7.4 3.9 6.2 3.9-6.2-2.6-.4v-1.7h8.4v1.7l-2.7.4zM44 195.1v1.4h198.9v-1.4H44z"/></svg>