<svg id="Layer_1" xmlns="http://www.w3.org/2000/svg" width="288" height="216" viewBox="143.78 36 288 216"><path fill="#B00" d="M274.167 79.29l5.183-5.184h16.795l5.182 5.184v34.538l-5.182 5.182H279.35l-5.183-5.182V79.29zm40.245-5.638l-12.811-12.776h-27.736l-12.877 12.885v45.609l12.876 12.884h27.737l12.811-12.742v-45.86z"/><path fill="#666" d="M259.306 120.112V72.745l13.944-13.929 29.148-.003 14 13.932-.246 47.467-13.854 13.853-29.048-.001-13.944-13.952zm13.355-62.624L257.99 72.154v48.56l14.569 14.753h30.345L317.47 120.8l.1-48.646-14.566-14.666h-30.343z"/><path fill="#666" d="M280.868 77.427h13.775l3.285 3.285v31.761l-3.162 3.164h-14.023l-3.115-3.116V80.668l3.24-3.241zm18.388 2.789l-4.115-4.115h-14.847l-4.058 4.059v32.834l3.97 3.969h15.115l3.938-3.937v-32.81h-.003zm-121.14 80.814l-.437-3.021h-5.527v19.533l2.944.437v1.854h-10.475v-1.854l2.945-.437V158.01h-5.528l-.437 3.021h-1.966v-5.566h20.444v5.566l-1.963-.001zm15.169 18.805v-1.746l2.728-.438v-6.656h-7.274v6.656l2.728.438v1.746h-9.93v-1.746l2.837-.438v-14.73l-2.837-.438v-1.746h9.93v1.746l-2.728.438v5.746h7.274v-5.746l-2.728-.438v-1.746h9.93v1.746l-2.836.438v14.73l2.836.438v1.746h-9.93zm28.516 0h-16.478v-1.746l2.837-.438v-14.73l-2.837-.438v-1.746h16.478v5.057h-1.854l-.438-2.727h-6.982v5.674h4.363l.438-2.438h1.636v7.058h-1.636l-.438-2.438h-4.363v6.584h6.982l.438-2.729h1.854v5.057zm23.169.437c-7.565 0-10.875-4.513-10.875-12.695 0-8.148 3.346-12.551 10.913-12.551 7.565 0 10.876 4.512 10.876 12.694 0 8.15-3.346 12.552-10.914 12.552zm.038-22.589c-4.038 0-6.11 3.238-6.11 9.93 0 6.73 2 10.005 6.037 10.005 4.039 0 6.111-3.238 6.111-9.931-.001-6.731-2.001-10.004-6.038-10.004zm24.588 22.152v-1.746l2.728-.438v-6.656h-7.273v6.656l2.729.438v1.746h-9.932v-1.746l2.837-.438v-14.73l-2.837-.438v-1.746h9.932v1.746l-2.729.438v5.746h7.273v-5.746l-2.728-.438v-1.746h9.931v1.746l-2.837.438v14.73l2.837.438v1.746h-9.931zm12.294 0v-1.746l2.837-.438v-14.73l-2.837-.438v-1.746h10.04v1.746l-2.838.438v14.73l2.838.438v1.746h-10.04zm20.807.363c-6.439 0-9.24-3.603-9.24-9.93 0-6.328 2.836-9.857 9.275-9.857 6.438 0 9.238 3.602 9.238 9.93.001 6.33-2.835 9.857-9.273 9.857zm.035-17.277c-3.057 0-4.691 2.219-4.691 7.348 0 5.164 1.562 7.42 4.619 7.42 3.055 0 4.729-2.219 4.729-7.348 0-5.164-1.602-7.42-4.657-7.42zm29.135 17.351c-4.219 0-7.602-1.455-7.602-1.455v-5.201h2.072l.473 3.346s1.564.545 4.33.545c2.836 0 5.383-.945 5.383-4.037 0-2.801-1.965-3.201-4.365-4.002-3.818-1.273-7.857-2.363-7.857-7.602 0-4.256 2.656-6.84 8.223-6.84 2.547 0 5.199.584 7.273 1.383v4.875h-2.074l-.471-3.129s-2.184-.473-4.295-.473c-2.109 0-4.291.729-4.291 3.528 0 6.074 12.223 2.072 12.223 11.785 0 4.586-2.983 7.277-9.022 7.277zm26.262-14.259l-.436-2.945h-4.221v14.584l2.838.438v1.746h-10.039v-1.746l2.838-.438v-14.584h-4.221l-.436 2.945h-1.857v-5.275h17.389v5.275h-1.855zm13.531 13.822v-1.746l2.727-.438-1.344-3.453h-7.275l-1.348 3.453 2.73.438v1.746h-8.33v-1.746l2.729-.438 6.547-16.914h4.184l6.547 16.914 2.729.438v1.746h-9.896zm-2.258-15.422l-2.764 7.566h5.529l-2.765-7.566zm26.516 1.6l-.438-2.945h-4.219v14.584l2.838.438v1.746h-10.041v-1.746l2.838-.438v-14.584h-4.221l-.436 2.945h-1.855v-5.275h17.389v5.275h-1.855zm20.006 13.822h-16.479v-1.746l2.838-.438v-14.73l-2.838-.438v-1.746h16.479v5.057h-1.854l-.439-2.727h-6.98v5.674h4.361l.439-2.438h1.637v7.058h-1.637l-.439-2.438h-4.361v6.584h6.98l.439-2.729h1.854v5.057zM211.56 193.778v12.44c0 4.183-.255 6.002-2.219 7.966-1.419 1.42-3.747 2.108-7.202 2.108-3.42 0-5.966-.944-7.566-2.545-2.072-2.074-1.854-5.166-1.854-7.856v-12.113l-2.946-.437v-1.854h10.476v1.854l-2.947.437v14.26c0 4.002 2.22 5.602 5.639 5.602 1.82 0 3.312-.363 4.293-1.418.873-.91 1.346-2.328 1.346-4.184v-14.26l-2.946-.437v-1.854h8.875v1.854l-2.949.437zm22.951 5.166v16.914h-3.419l-9.713-13.642v11.457l2.838.438v1.746h-8.548v-1.746l2.837-.438v-14.729l-2.837-.438v-1.746h6.657l9.312 13.023v-10.841l-2.836-.438v-1.746h8.547v1.746l-2.838.44zm5.092 16.914v-1.746l2.839-.438v-14.729l-2.839-.438v-1.746h10.039v1.746l-2.837.438v14.729l2.837.438v1.746h-10.039zm31.355-16.914l-6.366 16.914h-4.22l-6.367-16.914-2.726-.438v-1.746h9.892v1.746l-2.728.438 4.839 13.096 4.8-13.096-2.727-.438v-1.746h8.329v1.746l-2.726.438zm20.698 16.914h-16.479v-1.746l2.836-.438v-14.729l-2.836-.438v-1.746h16.479v5.058h-1.857l-.436-2.729h-6.985v5.677h4.365l.438-2.438h1.637v7.057h-1.637l-.438-2.438h-4.365v6.584h6.985l.436-2.729h1.857v5.055zm16.731 0l-1.783-4.365c-1.201-2.91-1.928-4.256-4.473-4.256h-.328v6.438l2.729.438v1.746H294.6v-1.746l2.836-.438v-14.73l-2.836-.438v-1.746h9.641c1.963 0 4.254.109 5.746 1.492.98.91 1.527 2.146 1.527 3.564 0 2.219-1.455 4.219-3.455 4.838 1.6 1.199 2.982 5.129 3.783 7.02l2.729.438v1.746h-6.184v-.001zm-2.037-16.187c-.729-.764-2.293-.691-3.273-.691h-1.273v6.111h.766c1.234 0 2.945.146 3.854-.873.582-.654.729-1.418.729-2.254-.005-.838-.184-1.637-.803-2.293zm16.839 16.551c-3.564 0-6.547-1.199-6.547-1.199v-4.946h1.965l.471 3.127s1.383.401 3.531.401c2.328 0 4.107-.766 4.107-2.84 0-1.453-.799-1.963-2-2.363-3.527-1.2-8.039-1.709-8.039-6.475 0-3.42 2.365-5.494 7.057-5.494 2.146 0 4.365.438 6.295 1.129v4.729h-1.965l-.473-2.981s-1.602-.363-3.383-.363c-1.783 0-3.348.617-3.348 2.473 0 4.258 10.076 1.42 10.076 8.984.002 3.708-2.69 5.818-7.747 5.818zm10.295-.364v-1.746l2.836-.438v-14.729l-2.836-.438v-1.746h10.039v1.746l-2.838.438v14.729l2.838.438v1.746h-10.039zm27.645-13.822l-.438-2.947h-4.219v14.586l2.838.438v1.746h-10.04v-1.746l2.838-.438v-14.586h-4.223l-.434 2.947h-1.855v-5.275h17.389v5.275h-1.856zm21.933-3.092l-5.566 8.621v6.108l2.838.438v1.746h-10.039v-1.746l2.838-.438v-6.108l-5.641-8.621-2.729-.438v-1.746h10.113v1.746l-2.729.438 3.928 6.184 3.893-6.184-2.619-.438v-1.746h8.439v1.746l-2.726.438zm-194.743 30.198v1.371h198.923v-1.371z"/></svg>