<?xml version="1.0" encoding="utf-8"?>
<!-- Generator: Adobe Illustrator 25.2.3, SVG Export Plug-In . SVG Version: 6.00 Build 0)  -->
<svg version="1.1" id="Layer_1" xmlns="http://www.w3.org/2000/svg" xmlns:xlink="http://www.w3.org/1999/xlink" x="0px" y="0px"
	 viewBox="0 0 290 210" style="enable-background:new 0 0 290 210;" xml:space="preserve">
<style type="text/css">
	.st0{fill:#BB0000;}
	.st1{fill:#2D2D2D;}
</style>
<g>
	<path class="st0" d="M130.2,38.9l5.7-5.7h18.4l5.7,5.7v37.9l-5.7,5.7h-18.4l-5.7-5.7V38.9z M174.1,32.8l-14-14.1h-30.3l-14.1,14.2
		V83l14.1,14.2h30.3l14-13.9V32.8z"/>
	<path class="st1" d="M113.9,83.8V31.7l15.2-15.3h31.8l15.3,15.3L176,83.9l-15.2,15.3h-31.7C129.1,99.1,113.9,83.8,113.9,83.8z
		 M128.6,15l-16.1,16.1v53.4l16,16.3h33.1l16-16.1l0.1-53.4l-16-16.1L128.6,15L128.6,15z"/>
	<path class="st1" d="M137.5,36.9h15.1l3.6,3.6v34.9l-3.5,3.5h-15.3l-3.4-3.4v-35L137.5,36.9z M157.6,39.9l-4.5-4.5H137l-4.5,4.5v36
		l4.4,4.4h16.5l4.3-4.3L157.6,39.9L157.6,39.9z M25.2,128.7l-0.4-3.3h-6v21.4l3.2,0.4v2.1H10.5v-2l3.2-0.4v-21.5h-6l-0.4,3.3H5v-6.2
		h22.3v6.2C27.3,128.7,25.2,128.7,25.2,128.7z M41.8,149.3v-1.9l2.9-0.4v-7.4h-7.9v7.4l2.9,0.4v1.9H29v-1.9l3.1-0.4v-16.1l-3.1-0.4
		v-1.9h10.8v1.9l-2.9,0.4v6.3h8v-6.3l-2.9-0.4v-1.9h10.8v1.9l-3.1,0.4V147l3.1,0.4v1.9L41.8,149.3L41.8,149.3z M73,149.3h-18v-1.9
		L58,147v-16.1l-3.1-0.4v-1.9h18v5.6h-2.1l-0.4-3h-7.6v6.3h4.8l0.4-2.6h1.7v7.8H68l-0.4-2.6h-4.8v7.2h7.6l0.4-3H73V149.3L73,149.3z
		 M98.3,149.9c-8.3,0-11.9-4.9-11.9-13.9c0-8.9,3.6-13.8,11.9-13.8s11.9,4.9,11.9,13.9C110.2,145,106.6,149.9,98.3,149.9L98.3,149.9
		z M98.3,125c-4.4,0-6.7,3.5-6.7,10.9c0,7.4,2.2,11,6.6,11s6.7-3.5,6.7-10.9C105,128.7,102.8,125,98.3,125z M125.2,149.3v-1.9
		l2.9-0.4v-7.4h-8v7.4l2.9,0.4v1.9h-10.8v-1.9l3.1-0.4v-16.1l-3.1-0.4v-1.9h10.8v1.9l-2.9,0.4v6.3h8v-6.3l-2.9-0.4v-1.9H136v1.9
		l-3.1,0.4V147l3.1,0.4v1.9L125.2,149.3L125.2,149.3z M138.6,149.3v-1.9l3.1-0.4v-16.1l-3.1-0.4v-1.9h10.9v1.9l-3.1,0.4V147l3.1,0.4
		v1.9L138.6,149.3L138.6,149.3z M161.3,149.8c-7,0-10.1-4-10.1-10.9c0-6.9,3.1-10.9,10.2-10.9c7,0,10.1,4,10.1,10.9
		C171.5,145.9,168.4,149.8,161.3,149.8z M161.4,130.8c-3.4,0-5.1,2.4-5.1,8c0,5.7,1.7,8.1,5,8.1c3.4,0,5.1-2.4,5.1-8
		S164.7,130.8,161.4,130.8z M193.2,149.9c-4.6,0-8.3-1.6-8.3-1.6v-5.7h2.3l0.5,3.6c0,0,1.7,0.5,4.7,0.5c3.1,0,5.9-1,5.9-4.4
		c0-3.1-2.2-3.5-4.8-4.4c-4.2-1.4-8.6-2.6-8.6-8.3c0-4.7,2.9-7.5,9-7.5c2.7,0,5.7,0.7,8,1.5v5.4h-2.3l-0.5-3.4c0,0-2.4-0.5-4.7-0.5
		s-4.7,0.8-4.7,3.8c0,6.7,13.3,2.3,13.3,13C203.1,146.9,199.8,149.9,193.2,149.9L193.2,149.9z M222,134.2l-0.4-3.2h-4.6v16l3.1,0.4
		v1.9h-10.9v-1.9l3.1-0.4v-16h-4.6l-0.4,3.2H205v-5.8h19v5.8H222L222,134.2z M236.7,149.3v-1.9l2.9-0.4l-1.4-3.8h-8l-1.4,3.8
		l2.9,0.4v1.9h-9.2v-1.9l2.9-0.4l7.1-18.6h4.6l7.1,18.6l2.9,0.4v1.9H236.7L236.7,149.3z M234.2,132.4l-3.1,8.3h6L234.2,132.4z
		 M263.2,134.2l-0.4-3.2h-4.6v16l3.1,0.4v1.9h-10.9v-1.9l3.1-0.4v-16h-4.6l-0.4,3.2h-2.1v-5.8h19v5.8H263.2z M285,149.3h-18v-1.9
		l3.1-0.4v-16.1l-3.1-0.4v-1.9h18v5.6h-2.1l-0.4-3h-7.6v6.3h4.8l0.4-2.6h1.7v7.8h-1.7l-0.4-2.6h-4.8v7.2h7.6l0.4-3h2.1L285,149.3
		L285,149.3z M61.8,164.7v13.6c0,4.6-0.3,6.6-2.4,8.8c-1.5,1.5-4,2.3-7.9,2.3c-3.7,0-6.6-1-8.3-2.7c-2.3-2.3-2.1-5.7-2.1-8.7v-13.3
		l-3.2-0.4v-2.1h11.5v2.1l-3.2,0.4v15.6c0,4.4,2.4,6.2,6.1,6.2c2,0,3.6-0.4,4.7-1.5c1-1,1.4-2.5,1.4-4.6v-15.7l-3.2-0.4v-2.1h9.7
		v2.1L61.8,164.7L61.8,164.7z M86.8,170.3v18.6h-3.7l-10.6-14.9v12.6l3.1,0.4v1.9h-9.3V187l3.1-0.4v-16.1l-3.1-0.4v-1.9h7.3
		l10.2,14.3v-11.9l-3.1-0.4v-1.9H90v1.9L86.8,170.3L86.8,170.3z M92.4,189v-1.9l3.1-0.4v-16.1l-3.1-0.4v-1.9h10.9v1.9l-3.1,0.4v16.1
		l3.1,0.4v1.9L92.4,189L92.4,189z M126.7,170.3l-7,18.6h-4.6l-7-18.6l-2.9-0.4V168H116v1.9l-2.9,0.4l5.2,14.4l5.2-14.4l-2.9-0.4V168
		h9.1v1.9L126.7,170.3L126.7,170.3z M149.3,189h-18v-1.9l3.1-0.4v-16.1l-3.1-0.4v-1.9h18v5.6h-2.1l-0.4-3h-7.6v6.3h4.8l0.4-2.6h1.7
		v7.8h-1.7l-0.4-2.6h-4.8v7.2h7.6l0.4-3h2.1L149.3,189L149.3,189z M167.6,189l-2-4.8c-1.3-3.2-2.1-4.7-4.9-4.7h-0.3v7l2.9,0.4v1.9
		h-10.8v-1.9l3.1-0.4v-16.1l-3.1-0.4V168H163c2.2,0,4.7,0.1,6.2,1.6c1.1,1,1.6,2.3,1.6,4c0,2.4-1.6,4.6-3.8,5.3
		c1.7,1.3,3.3,5.6,4.2,7.7l2.9,0.4v1.9L167.6,189L167.6,189z M165.4,171.2c-0.8-0.9-2.5-0.8-3.6-0.8h-1.4v6.7h0.9
		c1.3,0,3.2,0.1,4.3-1c0.7-0.8,0.8-1.5,0.8-2.5C166.2,172.7,166,171.8,165.4,171.2L165.4,171.2z M183.7,189.3
		c-3.9,0-7.1-1.3-7.1-1.3v-5.4h2.2l0.5,3.4c0,0,1.5,0.4,3.8,0.4c2.5,0,4.5-0.9,4.5-3.1c0-1.6-0.9-2.2-2.2-2.6
		c-3.8-1.3-8.7-1.9-8.7-7.1c0-3.7,2.6-6,7.8-6c2.3,0,4.8,0.4,6.9,1.2v5.2h-2.2l-0.5-3.3c0,0-1.7-0.4-3.7-0.4c-2,0-3.6,0.7-3.6,2.7
		c0,4.7,11,1.5,11,9.9C192.2,187,189.3,189.3,183.7,189.3L183.7,189.3z M195,189v-1.9l3.1-0.4v-16.1l-3.1-0.4v-1.9h10.9v1.9
		l-3.1,0.4v16.1l3.1,0.4v1.9L195,189L195,189z M225.2,173.7l-0.4-3.2h-4.6v16l3.1,0.4v1.9h-10.9V187l3.1-0.4v-16h-4.6l-0.4,3.2h-2.1
		v-5.8h19v5.8H225.2L225.2,173.7z M249.2,170.3l-6.1,9.4v6.7l3.1,0.4v1.9h-10.9v-1.9l3.1-0.4v-6.7l-6.1-9.4l-2.9-0.4V168h11v1.9
		l-2.9,0.4l4.3,6.8l4.3-6.8l-2.8-0.4V168h9.2v1.9L249.2,170.3L249.2,170.3z M36.4,203.5v1.5h217.4v-1.5H36.4z"/>
</g>
</svg>
