<?xml version="1.0" encoding="utf-8"?>
<!-- Generator: Adobe Illustrator 25.2.3, SVG Export Plug-In . SVG Version: 6.00 Build 0)  -->
<svg version="1.1" id="Layer_1" xmlns="http://www.w3.org/2000/svg" xmlns:xlink="http://www.w3.org/1999/xlink" x="0px" y="0px"
	 viewBox="0 0 290 210" style="enable-background:new 0 0 290 210;" xml:space="preserve">
<style type="text/css">
	.st0{fill:#BB0000;}
	.st1{fill:#666666;}
</style>
<g>
	<path class="st0" d="M130.1,38.9l5.7-5.7h18.3l5.7,5.7v37.9l-5.7,5.7h-18.3l-5.7-5.7V38.9z M174.1,32.7l-14-14h-30.3l-14.1,14.1V83
		l14.1,14.1h30.3l14-14V32.7z"/>
	<path class="st1" d="M113.9,83.8v-52l15.2-15.3l31.8,0l15.3,15.3L176,83.9l-15.1,15.2l-31.7,0L113.9,83.8z M128.5,15l-16,16.1v53.3
		l15.9,16.2h33.2l15.9-16.1l0.1-53.4L161.6,15C161.6,15,128.5,15,128.5,15z"/>
	<path class="st1" d="M137.4,36.9h15l3.6,3.6v34.9l-3.5,3.5h-15.3l-3.4-3.4v-35L137.4,36.9z M157.5,40l-4.5-4.5h-16.2l-4.4,4.5V76
		l4.3,4.4h16.5l4.3-4.3L157.5,40L157.5,40L157.5,40z M25.2,128.7l-0.5-3.3h-6v21.4l3.2,0.5v2H10.4v-2l3.2-0.5v-21.4h-6l-0.5,3.3H5
		v-6.1h22.3v6.1L25.2,128.7L25.2,128.7z M41.8,149.4v-1.9l3-0.5v-7.3h-7.9v7.3l3,0.5v1.9H28.9v-1.9L32,147v-16.2l-3.1-0.5v-1.9h10.8
		v1.9l-3,0.5v6.3h7.9v-6.3l-3-0.5v-1.9h10.8v1.9l-3.1,0.5V147l3.1,0.5v1.9H41.8L41.8,149.4z M72.9,149.4h-18v-1.9L58,147v-16.2
		l-3.1-0.5v-1.9h18v5.6h-2l-0.5-3h-7.6v6.2h4.8l0.5-2.7h1.8v7.8H68l-0.5-2.7h-4.8v7.2h7.6l0.5-3h2V149.4L72.9,149.4z M98.2,149.8
		c-8.3,0-11.9-5-11.9-13.9c0-8.9,3.7-13.8,11.9-13.8c8.3,0,11.9,5,11.9,13.9C110.2,145,106.5,149.8,98.2,149.8L98.2,149.8z
		 M98.3,125c-4.4,0-6.7,3.6-6.7,10.9c0,7.4,2.2,11,6.6,11c4.4,0,6.7-3.6,6.7-10.9C104.9,128.6,102.7,125,98.3,125z M125.1,149.4
		v-1.9l3-0.5v-7.3h-7.9v7.3l3,0.5v1.9h-10.9v-1.9l3.1-0.5v-16.2l-3.1-0.5v-1.9h10.9v1.9l-3,0.5v6.3h7.9v-6.3l-3-0.5v-1.9H136v1.9
		l-3.1,0.5V147l3.1,0.5v1.9H125.1z M138.6,149.4v-1.9l3.1-0.5v-16.2l-3.1-0.5v-1.9h11v1.9l-3.1,0.5V147l3.1,0.5v1.9H138.6z
		 M161.3,149.7c-7,0-10.1-4-10.1-10.9c0-6.9,3.1-10.8,10.1-10.8c7,0,10.1,4,10.1,10.9C171.4,145.9,168.3,149.7,161.3,149.7z
		 M161.3,130.8c-3.3,0-5.1,2.4-5.1,8.1c0,5.7,1.7,8.1,5,8.1c3.3,0,5.2-2.4,5.2-8.1C166.4,133.3,164.7,130.8,161.3,130.8L161.3,130.8
		z M193.2,149.8c-4.6,0-8.3-1.6-8.3-1.6v-5.7h2.3l0.5,3.7c0,0,1.7,0.6,4.7,0.6c3.1,0,5.9-1,5.9-4.4c0-3.1-2.1-3.5-4.8-4.4
		c-4.2-1.4-8.6-2.6-8.6-8.3c0-4.7,2.9-7.5,9-7.5c2.8,0,5.7,0.6,7.9,1.5v5.4h-2.3l-0.5-3.4c0,0-2.4-0.5-4.7-0.5
		c-2.3,0-4.7,0.8-4.7,3.9c0,6.7,13.4,2.3,13.4,12.9C203,146.9,199.8,149.8,193.2,149.8L193.2,149.8z M221.9,134.2l-0.5-3.2h-4.6v16
		l3.1,0.5v1.9h-11v-1.9l3.1-0.5v-16h-4.6l-0.5,3.2h-2v-5.8h19v5.8H221.9z M236.6,149.4v-1.9l3-0.5l-1.5-3.8h-7.9l-1.5,3.8l3,0.5v1.9
		h-9.1v-1.9l3-0.5l7.2-18.6h4.6l7.2,18.6l3,0.5v1.9H236.6L236.6,149.4z M234.2,132.4l-3,8.3h6L234.2,132.4L234.2,132.4z
		 M263.1,134.2l-0.5-3.2h-4.6v16l3.1,0.5v1.9h-11v-1.9l3.1-0.5v-16h-4.6l-0.5,3.2h-2v-5.8h19v5.8H263.1L263.1,134.2z M285,149.4h-18
		v-1.9l3.1-0.5v-16.2l-3.1-0.5v-1.9h18v5.6h-2l-0.5-3h-7.6v6.2h4.8l0.5-2.7h1.8v7.8h-1.8l-0.5-2.7h-4.8v7.2h7.6l0.5-3h2V149.4
		L285,149.4z M61.7,164.7v13.7c0,4.6-0.3,6.6-2.4,8.7c-1.6,1.6-4.1,2.3-7.9,2.3c-3.7,0-6.5-1-8.3-2.8c-2.3-2.3-2-5.7-2-8.6v-13.3
		l-3.2-0.5v-2h11.4v2l-3.2,0.5v15.7c0,4.4,2.4,6.2,6.2,6.2c2,0,3.6-0.4,4.7-1.6c1-1,1.5-2.6,1.5-4.6v-15.7l-3.2-0.5v-2H65v2
		L61.7,164.7z M86.8,170.3v18.6h-3.7l-10.6-15v12.6l3.1,0.5v1.9h-9.3V187l3.1-0.5v-16.2l-3.1-0.5v-1.9h7.3l10.2,14.3v-11.9l-3.1-0.5
		v-1.9h9.3v1.9L86.8,170.3L86.8,170.3z M92.4,188.9V187l3.1-0.5v-16.2l-3.1-0.5v-1.9h11v1.9l-3.1,0.5v16.2l3.1,0.5v1.9H92.4z
		 M126.6,170.3l-7,18.6h-4.6l-7-18.6l-3-0.5v-1.9h10.8v1.9l-3,0.5l5.3,14.4l5.2-14.4l-3-0.5v-1.9h9.1v1.9L126.6,170.3z M149.2,188.9
		h-18V187l3.1-0.5v-16.2l-3.1-0.5v-1.9h18v5.6h-2l-0.5-3h-7.6v6.2h4.8l0.5-2.7h1.8v7.7h-1.8l-0.5-2.7h-4.8v7.2h7.6l0.5-3h2V188.9
		L149.2,188.9z M167.5,188.9l-1.9-4.8c-1.3-3.2-2.1-4.7-4.9-4.7h-0.4v7.1l3,0.5v1.9h-10.9V187l3.1-0.5v-16.2l-3.1-0.5v-1.9H163
		c2.1,0,4.6,0.1,6.3,1.6c1.1,1,1.7,2.4,1.7,3.9c0,2.4-1.6,4.6-3.8,5.3c1.7,1.3,3.3,5.6,4.1,7.7l3,0.5v1.9L167.5,188.9L167.5,188.9
		L167.5,188.9z M165.3,171.1c-0.8-0.8-2.5-0.8-3.6-0.8h-1.4v6.7h0.8c1.3,0,3.2,0.2,4.2-1c0.6-0.7,0.8-1.6,0.8-2.5
		C166.2,172.7,166,171.9,165.3,171.1L165.3,171.1z M183.7,189.3c-3.9,0-7.2-1.3-7.2-1.3v-5.4h2.1l0.5,3.4c0,0,1.5,0.4,3.9,0.4
		c2.5,0,4.5-0.8,4.5-3.1c0-1.6-0.9-2.2-2.2-2.6c-3.9-1.3-8.8-1.9-8.8-7.1c0-3.8,2.6-6,7.7-6c2.3,0,4.8,0.5,6.9,1.2v5.2H189l-0.5-3.3
		c0,0-1.8-0.4-3.7-0.4c-1.9,0-3.7,0.7-3.7,2.7c0,4.7,11,1.6,11,9.9C192.2,187,189.2,189.3,183.7,189.3L183.7,189.3z M194.9,188.9
		V187l3.1-0.5v-16.2l-3.1-0.5v-1.9h11v1.9l-3.1,0.5v16.2l3.1,0.5v1.9H194.9z M225.1,173.7l-0.5-3.2H220v16l3.1,0.5v1.9h-11V187
		l3.1-0.5v-16h-4.6l-0.5,3.2h-2v-5.8h19v5.8H225.1L225.1,173.7z M249.1,170.3l-6.1,9.5v6.7l3.1,0.5v1.9h-11V187l3.1-0.5v-6.7
		l-6.2-9.5l-3-0.5v-1.9h11v1.9l-3,0.5l4.3,6.8l4.3-6.8l-2.9-0.5v-1.9h9.2v1.9L249.1,170.3L249.1,170.3z M36.3,203.5v1.5h217.3v-1.5
		H36.3z"/>
</g>
</svg>
