<svg id="b7d26403-fa24-416b-b6a0-5970629eab0e" data-name="Layer 1" xmlns="http://www.w3.org/2000/svg" viewBox="0 0 109.5 20"><path d="M24.87,7.07l-.31-.92H22l-.32.92H19.84L22.25.66h2.08l2.42,6.41ZM23.29,2.3l-.82,2.41H24.1Zm4,4.77V.66H30a3.15,3.15,0,0,1,3.47,3.2A3.16,3.16,0,0,1,30,7.07Zm4.47-3.21A1.65,1.65,0,0,0,30,2.1H29V5.63h1A1.71,1.71,0,0,0,31.78,3.86ZM40,7.07V2.9L38.38,7.07h-.73L36,2.9V7.07H34.39V.66h2.29L38,4.14,39.36.66h2.29V7.07Zm2.9,0V.66h1.65V7.07Zm7.26,0L47.45,3.36V7.07H45.8V.66h1.7l2.59,3.53V.66h1.66V7.07Zm2.84,0V.66h1.65V7.07Zm2.44-.91.87-1.23a2.89,2.89,0,0,0,2,.84c.56,0,.91-.22.91-.53,0-.87-3.63-.17-3.63-2.64,0-1.07.91-2,2.55-2a3.91,3.91,0,0,1,2.61.89l-.91,1.18A3,3,0,0,0,58,2c-.48,0-.69.19-.69.46,0,.82,3.62.22,3.62,2.6,0,1.29-1,2.14-2.67,2.14A3.88,3.88,0,0,1,55.44,6.16Zm7.64.91v-5h-1.8V.66h5.24V2.1H64.73v5Zm7.89,0L69.9,4.92h-.85V7.07H67.4V.66h3.21a2.06,2.06,0,0,1,2.22,2.13,2,2,0,0,1-1.27,1.93l1.3,2.35Zm.18-4.28a.71.71,0,0,0-.79-.69H69.05V3.48h1.31A.71.71,0,0,0,71.15,2.79Zm7,4.28-.32-.92H75.35L75,7.07H73.16L75.57.66h2.07l2.42,6.41ZM76.61,2.3l-.82,2.41h1.63Zm4.85,4.77v-5H79.67V.66H84.9V2.1H83.12v5Zm4.32,0V.66h1.66V7.07Zm4.63,0L88,.66h1.87l1.58,4.62L93,.66H94.9L92.48,7.07Zm5.06,0V.66h4.69V2.1h-3v1h3V4.54h-3V5.63h3V7.07Z" style="fill:#b00"/><path d="M25.3,14.2H24.1v2.47h-1V10.26h2.69a1.91,1.91,0,0,1,2.06,2,1.78,1.78,0,0,1-1.6,1.87l1.65,2.57H26.82Zm.41-3.09H24.1v2.24h1.61a1.12,1.12,0,1,0,0-2.24Zm3.36-.85h4.3v.85H30V13H33.3v.85H30v2h3.34v.85h-4.3ZM34.72,15a2.71,2.71,0,0,0,2,.9c1,0,1.4-.53,1.4-1,0-.67-.73-.86-1.55-1.08-1-.27-2.21-.56-2.21-1.87,0-1.05.93-1.82,2.26-1.82a3.14,3.14,0,0,1,2.34.89l-.56.71A2.49,2.49,0,0,0,36.57,11c-.71,0-1.2.37-1.2.9s.69.76,1.48,1c1,.28,2.27.61,2.27,2,0,1-.69,1.93-2.42,1.93a3.28,3.28,0,0,1-2.53-1Zm8.47-4.87a3.15,3.15,0,0,1,3.23,3.31,3.23,3.23,0,1,1-6.46,0A3.15,3.15,0,0,1,43.19,10.16Zm0,.85A2.25,2.25,0,0,0,41,13.47a2.25,2.25,0,1,0,4.48,0A2.26,2.26,0,0,0,43.19,11Zm4.39-.75h1v3.87a1.72,1.72,0,1,0,3.44,0V10.26h1v3.89a2.41,2.41,0,0,1-2.69,2.63,2.42,2.42,0,0,1-2.69-2.62Zm9,3.94h-1.2v2.47h-1V10.26h2.7a1.91,1.91,0,0,1,2,2,1.78,1.78,0,0,1-1.59,1.87l1.64,2.57H58.08ZM57,11.11H55.35v2.24H57a1.12,1.12,0,1,0,0-2.24Zm3.09,2.36a3.2,3.2,0,0,1,3.28-3.31,2.88,2.88,0,0,1,2.54,1.35l-.81.43A2.05,2.05,0,0,0,63.34,11a2.31,2.31,0,0,0-2.29,2.46,2.31,2.31,0,0,0,2.29,2.46A2.05,2.05,0,0,0,65.07,15l.81.43a2.88,2.88,0,0,1-2.54,1.35A3.2,3.2,0,0,1,60.06,13.47Zm6.78-3.21h4.3v.85H67.8V13h3.28v.85H67.8v2h3.34v.85h-4.3Zm7.71,3.21a3.21,3.21,0,0,1,3.29-3.31,2.89,2.89,0,0,1,2.54,1.35l-.82.43A2,2,0,0,0,77.84,11a2.32,2.32,0,0,0-2.3,2.46,2.32,2.32,0,0,0,2.3,2.46A2,2,0,0,0,79.56,15l.82.43a2.91,2.91,0,0,1-2.54,1.35A3.21,3.21,0,0,1,74.55,13.47Zm6.79-3.21h4.3v.85H82.3V13h3.27v.85H82.3v2h3.34v.85h-4.3Zm6.46,1.49v4.92h-1V10.26h1l3.48,4.8v-4.8h1v6.41h-.93Zm7.46-.64h-2v-.85H98.2v.85h-2v5.56h-1Zm3.94-.85h4.3v.85h-3.34V13h3.27v.85h-3.27v2h3.34v.85H99.2Zm7.66,3.94h-1.2v2.47h-1V10.26h2.69a1.91,1.91,0,0,1,2.06,2,1.78,1.78,0,0,1-1.6,1.87l1.65,2.57h-1.12Zm.41-3.09h-1.61v2.24h1.61a1.12,1.12,0,1,0,0-2.24Z" style="fill:#333"/><path d="M5.39,6v7.18H7.78V6h2.4v7.18h0c0,.07,0,.13,0,.2a5.55,5.55,0,0,0,.09,1H1.2v-.75a.45.45,0,0,1,.45-.45H3V6ZM15,7.82V6h-2.4V8.78A5.58,5.58,0,0,1,15,7.82ZM.3,4.49h.9v.45a.45.45,0,0,0,.45.45H16.31a.45.45,0,0,0,.45-.45V4.49h.9a.3.3,0,0,0,.3-.3v-.6a.28.28,0,0,0-.19-.27L9.09,0a.28.28,0,0,0-.22,0L.18,3.32A.28.28,0,0,0,0,3.59v.6A.29.29,0,0,0,.3,4.49ZM.9,15a.89.89,0,0,0-.9.89v.6a.29.29,0,0,0,.3.3h11A5.63,5.63,0,0,1,10.41,15Zm21.42,4.25-.62.63a.54.54,0,0,1-.75,0l-2.18-2.19a.52.52,0,0,1-.16-.37v-.36a4.58,4.58,0,1,1,.79-.79h.36a.56.56,0,0,1,.37.15l2.19,2.19A.53.53,0,0,1,22.32,19.22Zm-3.71-5.89a2.81,2.81,0,1,0-2.8,2.81A2.8,2.8,0,0,0,18.61,13.33Z" style="fill:#333"/></svg>