<svg id="Layer_1" xmlns="http://www.w3.org/2000/svg" width="290" height="40" viewBox="0 0 290 40"><path d="M11.782 10.949L11.51 9.07H8.07v12.157l1.833.271v1.154H3.384v-1.154l1.833-.271V9.07h-3.44l-.272 1.879H.282V7.486h12.723v3.463h-1.223zm9.439 11.703v-1.087l1.697-.272v-4.142h-4.526v4.142l1.697.272v1.087H13.91v-1.087l1.766-.272v-9.167l-1.766-.272v-1.086h6.179v1.086l-1.697.272v3.576h4.526v-3.576l-1.697-.272v-1.086H27.4v1.086l-1.764.272v9.167l1.764.272v1.087h-6.179zm17.746 0H28.713v-1.087l1.766-.272v-9.167l-1.766-.272v-1.086h10.254v3.147h-1.154l-.272-1.698h-4.346v3.532h2.717l.272-1.517h1.018v4.391h-1.018l-.272-1.517h-2.717v4.097h4.346l.272-1.698h1.154v3.147zM53.409 8.867c-2.513 0-3.803 2.015-3.803 6.179 0 4.188 1.245 6.226 3.757 6.226 2.514 0 3.803-2.015 3.803-6.179.001-4.189-1.244-6.226-3.757-6.226zm-.023 14.057c-4.708 0-6.768-2.807-6.768-7.899 0-5.071 2.082-7.811 6.791-7.811 4.708 0 6.769 2.808 6.769 7.9 0 5.071-2.083 7.81-6.792 7.81zm15.325-.272v-1.087l1.697-.272v-4.142h-4.527v4.142l1.698.272v1.087h-6.18v-1.087l1.766-.272v-9.167l-1.766-.272v-1.086h6.18v1.086l-1.698.272v3.576h4.527v-3.576l-1.697-.272v-1.086h6.18v1.086l-1.767.272v9.167l1.767.272v1.087h-6.18zm7.65 0v-1.087l1.766-.272v-9.167l-1.766-.272v-1.086h6.248v1.086l-1.766.272v9.167l1.766.272v1.087h-6.248zm12.971-10.526c-1.902 0-2.92 1.381-2.92 4.573 0 3.213.973 4.617 2.875 4.617 1.902 0 2.944-1.381 2.944-4.572-.001-3.214-.998-4.618-2.899-4.618zm-.022 10.752c-4.007 0-5.75-2.241-5.75-6.179 0-3.939 1.765-6.135 5.772-6.135 4.006 0 5.749 2.242 5.749 6.18 0 3.939-1.765 6.134-5.771 6.134zm18.153.046c-2.625 0-4.731-.905-4.731-.905v-3.237h1.29l.294 2.083s.973.339 2.694.339c1.765 0 3.35-.588 3.35-2.513 0-1.742-1.223-1.991-2.717-2.49-2.376-.792-4.889-1.472-4.889-4.73 0-2.649 1.653-4.256 5.116-4.256 1.584 0 3.236.363 4.526.86v3.034h-1.29l-.294-1.947s-1.358-.294-2.672-.294c-1.312 0-2.671.453-2.671 2.196 0 3.78 7.607 1.29 7.607 7.334.001 2.85-1.855 4.526-5.613 4.526zm16.343-8.873l-.271-1.834h-2.627v9.076l1.766.272v1.087h-6.247v-1.087l1.765-.272v-9.076h-2.626l-.271 1.834h-1.155v-3.283h10.82v3.283h-1.154zm7.015-.997l-1.72 4.709h3.44l-1.72-4.709zm1.405 9.598v-1.087l1.696-.272-.836-2.149h-4.527l-.838 2.149 1.698.272v1.087h-5.184v-1.087l1.698-.272 4.074-10.525h2.603l4.075 10.525 1.698.272v1.087h-6.157zm15.095-8.601l-.271-1.834h-2.625v9.076l1.765.272v1.087h-6.248v-1.087l1.766-.272v-9.076h-2.626l-.272 1.834h-1.154v-3.283h10.821v3.283h-1.156zm12.45 8.601h-10.253v-1.087l1.765-.272v-9.167l-1.765-.272v-1.086h10.253v3.147h-1.154l-.272-1.698H154v3.532h2.715l.272-1.517h1.018v4.391h-1.018l-.272-1.517H154v4.097h4.345l.272-1.698h1.154v3.147zm20.667-13.74v7.742c0 2.603-.158 3.734-1.38 4.957-.884.883-2.332 1.313-4.482 1.313-2.128 0-3.713-.589-4.709-1.584-1.289-1.291-1.153-3.215-1.153-4.89V8.912l-1.835-.271V7.486h6.521v1.155l-1.834.271v8.874c0 2.49 1.38 3.486 3.508 3.486 1.133 0 2.061-.226 2.671-.884.543-.565.839-1.447.839-2.602V8.912l-1.834-.271V7.486h5.522v1.155l-1.834.271zm14.283 3.214v10.526h-2.127l-6.045-8.488v7.129l1.766.272v1.087h-5.32v-1.087l1.767-.272v-9.167l-1.767-.272v-1.086h4.144l5.794 8.104v-6.746l-1.765-.272v-1.086h5.318v1.086l-1.765.272zm3.168 10.526v-1.087l1.766-.272v-9.167l-1.766-.272v-1.086h6.247v1.086l-1.765.272v9.167l1.765.272v1.087h-6.247zm19.513-10.526l-3.961 10.526h-2.627l-3.96-10.526-1.698-.272v-1.086h6.156v1.086l-1.697.272 3.01 8.149 2.988-8.149-1.697-.272v-1.086h5.184v1.086l-1.698.272zm12.88 10.526h-10.255v-1.087l1.765-.272v-9.167l-1.765-.272v-1.086h10.255v3.147h-1.156l-.271-1.698h-4.346v3.532h2.716l.271-1.517h1.021v4.391h-1.021l-.271-1.517h-2.716v4.097h4.346l.271-1.698h1.156v3.147zm9.144-10.073c-.453-.475-1.428-.43-2.037-.43h-.792v3.803h.475c.77 0 1.834.091 2.4-.543.361-.407.452-.882.452-1.402 0-.523-.112-1.02-.498-1.428zm1.267 10.073l-1.11-2.716c-.746-1.811-1.198-2.649-2.782-2.649h-.204v4.006l1.698.272v1.087h-6.182v-1.087l1.766-.272v-9.167l-1.766-.272v-1.087h6c1.223 0 2.647.068 3.576.929.611.566.951 1.335.951 2.218 0 1.381-.907 2.625-2.151 3.011.996.746 1.856 3.191 2.354 4.367l1.699.272v1.087h-3.849v.001zm9.212.226c-2.217 0-4.074-.746-4.074-.746v-3.079h1.224l.293 1.947s.86.248 2.197.248c1.448 0 2.557-.475 2.557-1.765 0-.905-.498-1.222-1.244-1.471-2.197-.748-5.004-1.063-5.004-4.029 0-2.128 1.472-3.418 4.392-3.418 1.337 0 2.717.272 3.917.702v2.942h-1.224l-.293-1.856s-.996-.226-2.105-.226-2.083.385-2.083 1.539c0 2.648 6.271.883 6.271 5.591-.001 2.308-1.676 3.621-4.824 3.621zm6.407-.226v-1.087l1.766-.272v-9.167l-1.766-.272v-1.086h6.249v1.086l-1.767.272v9.167l1.767.272v1.087h-6.249zm17.204-8.601l-.273-1.834h-2.626v9.076l1.767.272v1.087h-6.249v-1.087l1.766-.272v-9.076h-2.626l-.271 1.834h-1.155v-3.283h10.821v3.283h-1.154zm13.648-1.925l-3.463 5.366v3.801l1.766.272v1.087h-6.247v-1.087l1.765-.272v-3.801l-3.508-5.366-1.699-.272v-1.086h6.293v1.086l-1.697.272 2.444 3.849 2.422-3.849-1.63-.272v-1.086h5.252v1.086l-1.698.272zM.25 30.93v.86h289.5v-.86H.25z" fill="#FFF"/></svg>