<svg id="Layer_1" xmlns="http://www.w3.org/2000/svg" viewBox="0 0 500 560"><style>.st0{fill:#b00}.st1{fill:#fff}</style><path class="st0" d="M0 0h500v560H0z"/><path class="st1" d="M181.4 193.4l26.1-26.1H292l26.1 26.1v173.9L292 393.4h-84.6l-26.1-26.1.1-173.9zM384 165.1l-64.5-64.3H179.9l-64.8 64.9v229.6l64.8 64.9h139.7L384 396V165.1z"/><path class="st1" d="M106.6 399V160.5l70.2-70.1h146.8l70.5 70.1-1.2 239-69.7 69.7H176.9L106.6 399zm67.3-315.3L100 157.5V402l73.4 74.3h152.8l73.4-73.8.5-244.9-73.3-73.8H173.9v-.1z"/><path class="st1" d="M215.2 184.1h69.4l16.5 16.5v159.9l-15.9 15.9h-70.6l-15.7-15.7V200.4l16.3-16.3zm92.6 14L287 177.4h-74.8l-20.4 20.4v165.3l20 20h76.1l19.8-19.8.1-165.2z"/></svg>