<svg id="Layer_1" xmlns="http://www.w3.org/2000/svg" viewBox="0 0 290 40"><style>.st0{fill:#2d2d2d}</style><path class="st0" d="M11.8 10.9l-.3-1.8H8.1v12.1l1.8.3v1.2H3.4v-1.2l1.8-.3V9.1H1.8l-.3 1.8H.3V7.5H13v3.4zm9.4 11.8v-1.1l1.7-.3v-4.1h-4.5v4.1l1.7.3v1.1h-6.2v-1.1l1.8-.3v-9.2l-1.8-.2v-1.1h6.2v1.1l-1.7.2v3.6h4.5v-3.6l-1.7-.2v-1.1h6.2v1.1l-1.8.2v9.2l1.8.3v1.1zm17.8 0H28.7v-1.1l1.8-.3v-9.2l-1.8-.2v-1.1H39v3.1h-1.2l-.3-1.7h-4.3v3.5h2.7l.3-1.5h1v4.4h-1l-.3-1.5h-2.7v4.1h4.3l.3-1.7H39zM53.4 8.9c-2.5 0-3.8 2-3.8 6.2s1.2 6.2 3.8 6.2c2.5 0 3.8-2 3.8-6.2s-1.3-6.2-3.8-6.2zm0 14c-4.7 0-6.8-2.8-6.8-7.9s2.1-7.8 6.8-7.8 6.8 2.8 6.8 7.9-2.1 7.8-6.8 7.8zm15.3-.2v-1.1l1.7-.3v-4.1h-4.5v4.1l1.7.3v1.1h-6.2v-1.1l1.8-.3v-9.2l-1.8-.2v-1.1h6.2v1.1l-1.7.2v3.6h4.5v-3.6l-1.7-.2v-1.1h6.2v1.1l-1.8.2v9.2l1.8.3v1.1zm7.7 0v-1.1l1.7-.3v-9.2l-1.7-.2v-1.1h6.2v1.1l-1.8.2v9.2l1.8.3v1.1zm12.9-10.6c-1.9 0-2.9 1.4-2.9 4.6s1 4.6 2.9 4.6 2.9-1.4 2.9-4.6c0-3.2-1-4.6-2.9-4.6zm0 10.8c-4 0-5.8-2.2-5.8-6.2 0-3.9 1.8-6.1 5.8-6.1s5.7 2.2 5.7 6.2c.1 3.9-1.7 6.1-5.7 6.1zm18.2 0c-2.6 0-4.7-.9-4.7-.9v-3.2h1.3l.3 2.1s1 .3 2.7.3c1.8 0 3.3-.6 3.3-2.5 0-1.7-1.2-2-2.7-2.5-2.4-.8-4.9-1.5-4.9-4.7 0-2.6 1.7-4.3 5.1-4.3 1.6 0 3.2.4 4.5.9v3h-1.3l-.3-1.9s-1.4-.3-2.7-.3c-1.3 0-2.7.5-2.7 2.2 0 3.8 7.6 1.3 7.6 7.3.1 2.8-1.8 4.5-5.5 4.5zm16.3-8.8l-.3-1.9h-2.6v9.1l1.8.3v1.1h-6.3v-1.1l1.8-.3v-9.1h-2.6l-.3 1.9h-1.2v-3.3H125v3.3zm7-1l-1.7 4.7h3.4l-1.7-4.7zm1.4 9.6v-1.1l1.7-.3-.8-2.1h-4.5l-.8 2.1 1.7.3v1.1h-5.2v-1.1l1.7-.3 4.1-10.5h2.6l4.1 10.5 1.7.3v1.1h-6.3zm15.1-8.6l-.2-1.9h-2.7v9.1l1.8.3v1.1h-6.3v-1.1l1.8-.3v-9.1h-2.6l-.3 1.9h-1.1v-3.3h10.8v3.3zm12.5 8.6h-10.3v-1.1l1.8-.3v-9.2l-1.8-.2v-1.1h10.3v3.1h-1.2l-.3-1.7H154v3.5h2.7l.3-1.5h1v4.4h-1l-.3-1.5H154v4.1h4.3l.3-1.7h1.2zm20.6-13.8v7.7c0 2.6-.2 3.7-1.4 5-.9.9-2.3 1.3-4.5 1.3-2.1 0-3.7-.6-4.7-1.6-1.3-1.3-1.2-3.2-1.2-4.9V8.9l-1.8-.3V7.5h6.5v1.2l-1.8.3v8.9c0 2.5 1.4 3.5 3.5 3.5 1.1 0 2.1-.2 2.7-.9.5-.6.8-1.4.8-2.6v-9l-1.8-.3V7.5h5.5v1.2l-1.8.2zm14.3 3.2v10.6h-2.1l-6.1-8.5v7.1l1.8.3v1.1H183v-1.1l1.8-.3v-9.2l-1.8-.2v-1.1h4.1l5.8 8.1v-6.8l-1.7-.2v-1.1h5.3v1.1zm3.2 10.6v-1.1l1.8-.3v-9.2l-1.8-.2v-1.1h6.2v1.1l-1.7.2v9.2l1.7.3v1.1zm19.5-10.6l-4 10.6h-2.6l-3.9-10.6-1.7-.2v-1.1h6.1v1.1l-1.7.2 3 8.2 3-8.2-1.7-.2v-1.1h5.2v1.1zm12.9 10.6H220v-1.1l1.8-.3v-9.2l-1.8-.2v-1.1h10.3v3.1h-1.2l-.2-1.7h-4.4v3.5h2.7l.3-1.5h1v4.4h-1l-.3-1.5h-2.7v4.1h4.4l.2-1.7h1.2zm9.1-10.1c-.5-.5-1.4-.4-2-.4h-.8V16h.5c.8 0 1.8.1 2.4-.5.4-.4.5-.9.5-1.4-.1-.6-.2-1.1-.6-1.5zm1.3 10.1l-1.1-2.7c-.7-1.8-1.2-2.6-2.8-2.6h-.2v4l1.7.3v1.1h-6.2v-1.1l1.8-.3v-9.2l-1.8-.3v-1.1h6c1.2 0 2.6.1 3.6.9.6.6 1 1.3 1 2.2 0 1.4-.9 2.6-2.2 3 1 .7 1.9 3.2 2.4 4.4l1.7.3v1.1h-3.9zm9.2.2c-2.2 0-4.1-.7-4.1-.7v-3.1h1.2l.3 1.9s.9.2 2.2.2c1.4 0 2.6-.5 2.6-1.8 0-.9-.5-1.2-1.2-1.5-2.2-.7-5-1.1-5-4 0-2.1 1.5-3.4 4.4-3.4 1.3 0 2.7.3 3.9.7v2.9H253l-.3-1.9s-1-.2-2.1-.2-2.1.4-2.1 1.5c0 2.6 6.3.9 6.3 5.6-.1 2.5-1.7 3.8-4.9 3.8zm6.4-.2v-1.1l1.8-.3v-9.2l-1.8-.2v-1.1h6.3v1.1l-1.8.2v9.2l1.8.3v1.1zm17.2-8.6l-.3-1.9h-2.6v9.1l1.8.3v1.1h-6.3v-1.1l1.8-.3v-9.1h-2.6l-.3 1.9h-1.2v-3.3h10.9v3.3zm13.7-2l-3.5 5.4v3.8l1.8.3v1.1h-6.3v-1.1l1.8-.3v-3.8l-3.5-5.4-1.7-.2v-1.1h6.3v1.1l-1.7.2 2.4 3.9 2.4-3.9-1.6-.2v-1.1h5.3v1.1zM.2 30.9v.9h289.6v-.9z"/></svg>